<svg width="597" height="557" viewBox="0 0 597 557" fill="none" xmlns="http://www.w3.org/2000/svg">
<path d="M0 498.168H597V498.494H0V498.168Z" fill="#EBEBEB"/>
<path d="M59.82 519.129H99.3652V519.455H59.82V519.129Z" fill="#EBEBEB"/>
<path d="M201.525 522.673H211.9V522.998H201.525V522.673Z" fill="#EBEBEB"/>
<path d="M100.558 507.04H123.471V507.366H100.558V507.04Z" fill="#EBEBEB"/>
<path d="M482.794 509.229H534.363V509.554H482.794V509.229Z" fill="#EBEBEB"/>
<path d="M464.596 509.229H472.154V509.554H464.596V509.229Z" fill="#EBEBEB"/>
<path d="M328.17 514.726H440.023V515.052H328.17V514.726Z" fill="#EBEBEB"/>
<path d="M314.022 440.066H544.571C546.377 440.062 548.108 439.277 549.384 437.883C550.66 436.488 551.377 434.598 551.377 432.627V79.0243C551.361 77.065 550.638 75.1916 549.363 73.811C548.089 72.4304 546.367 71.6541 544.571 71.6508H314.022C312.214 71.6508 310.479 72.4345 309.201 73.8295C307.922 75.2245 307.204 77.1166 307.204 79.0894V432.627C307.204 434.6 307.922 436.492 309.201 437.887C310.479 439.282 312.214 440.066 314.022 440.066ZM544.571 71.9113C546.298 71.9148 547.953 72.6657 549.173 73.9993C550.393 75.3328 551.078 77.1401 551.078 79.0243V432.627C551.078 434.512 550.393 436.319 549.173 437.652C547.953 438.986 546.298 439.737 544.571 439.74H314.022C312.294 439.737 310.637 438.986 309.415 437.653C308.193 436.32 307.506 434.513 307.502 432.627V79.0243C307.506 77.1389 308.193 75.3317 309.415 73.9985C310.637 72.6653 312.294 71.9148 314.022 71.9113H544.571Z" fill="#EBEBEB"/>
<path d="M55.7478 440.066H286.309C288.116 440.062 289.849 439.278 291.127 437.883C292.404 436.489 293.124 434.599 293.127 432.627V79.0243C293.108 77.0638 292.382 75.1904 291.106 73.8102C289.829 72.43 288.106 71.6541 286.309 71.6508H55.7478C53.9541 71.6576 52.2351 72.4353 50.9633 73.8156C49.6916 75.1958 48.9697 77.0672 48.954 79.0243V432.627C48.954 434.596 49.669 436.484 50.9424 437.878C52.2158 439.272 53.9438 440.059 55.7478 440.066ZM286.309 71.9113C288.037 71.9148 289.694 72.6653 290.916 73.9985C292.137 75.3317 292.825 77.1389 292.828 79.0243V432.627C292.825 434.513 292.137 436.32 290.916 437.653C289.694 438.986 288.037 439.737 286.309 439.74H55.7478C54.0198 439.737 52.3634 438.986 51.1415 437.653C49.9196 436.32 49.2318 434.513 49.2286 432.627V79.0243C49.2318 77.1389 49.9196 75.3317 51.1415 73.9985C52.3634 72.6653 54.0198 71.9148 55.7478 71.9113H286.309Z" fill="#EBEBEB"/>
<path d="M506.662 378.564H421.649C419.686 378.564 417.742 378.985 415.929 379.805C414.115 380.625 412.467 381.826 411.079 383.341C409.691 384.855 408.59 386.653 407.838 388.632C407.087 390.611 406.7 392.732 406.7 394.874V478.249C406.7 482.575 408.275 486.724 411.079 489.782C413.882 492.841 417.685 494.56 421.649 494.56H506.662V378.616V378.564Z" fill="#F0F0F0"/>
<path d="M505.957 378.564H507.366C515.622 378.564 522.314 385.866 522.314 394.874V478.197C522.314 487.205 515.622 494.507 507.366 494.507H505.957C497.701 494.507 491.008 487.205 491.008 478.197V394.874C491.008 385.866 497.701 378.564 505.957 378.564Z" fill="#F5F5F5"/>
<path d="M495.283 494.507H384.324V421.333H495.283V494.507Z" fill="#F0F0F0"/>
<path d="M504.393 498.168H304.41C303.598 498.165 302.82 497.81 302.247 497.183C301.674 496.555 301.353 495.706 301.353 494.82V494.507H421.601L507.449 494.82C507.449 495.706 507.128 496.555 506.555 497.183C505.982 497.81 505.204 498.165 504.393 498.168Z" fill="#E0E0E0"/>
<path d="M416.801 330.466H313.568C310.898 330.412 308.248 330.979 305.794 332.13C303.341 333.281 301.141 334.991 299.34 337.143C297.54 339.296 296.182 341.843 295.355 344.614C294.529 347.385 294.254 350.316 294.548 353.212L301.354 437.89H446.281L439.487 353.212C438.91 347.05 436.283 341.332 432.102 337.14C427.922 332.949 422.478 330.574 416.801 330.466Z" fill="#E0E0E0"/>
<path d="M433.113 330.466H327.862C325.322 330.421 322.802 330.965 320.47 332.063C318.137 333.161 316.046 334.788 314.334 336.836C312.622 338.884 311.329 341.305 310.54 343.94C309.752 346.575 309.486 349.362 309.761 352.118L316.65 437.877H461.59L454.7 352.118C454.152 346.253 451.652 340.81 447.674 336.82C443.696 332.83 438.516 330.57 433.113 330.466Z" fill="#F5F5F5"/>
<path d="M486.388 414.649H398.497C396.002 414.649 393.609 415.731 391.844 417.656C390.08 419.581 389.088 422.192 389.088 424.915V434.178C389.087 435.527 389.329 436.863 389.801 438.11C390.273 439.357 390.966 440.49 391.84 441.445C392.714 442.399 393.752 443.157 394.894 443.673C396.036 444.19 397.261 444.456 398.497 444.456H486.388C490.01 444.456 493.485 442.886 496.046 440.091C498.608 437.296 500.047 433.505 500.047 429.553C500.047 425.6 498.608 421.809 496.046 419.015C493.485 416.22 490.01 414.649 486.388 414.649Z" fill="#E0E0E0"/>
<path d="M383.834 378.564H298.821C294.856 378.564 291.054 380.282 288.251 383.341C285.447 386.399 283.872 390.548 283.872 394.874V478.249C283.872 482.575 285.447 486.724 288.251 489.782C291.054 492.841 294.856 494.56 298.821 494.56H383.834V378.616V378.564Z" fill="#F0F0F0"/>
<path d="M383.132 378.564H384.541C392.797 378.564 399.49 385.866 399.49 394.874V478.197C399.49 487.205 392.797 494.507 384.541 494.507H383.132C374.876 494.507 368.184 487.205 368.184 478.197V394.874C368.184 385.866 374.876 378.564 383.132 378.564Z" fill="#F5F5F5"/>
<path d="M149.239 314.833H230.969V498.168H149.239V314.833Z" fill="#F0F0F0"/>
<path d="M218.742 483.89V329.111H220.629V483.89H218.742Z" fill="#E6E6E6"/>
<path d="M161.285 329.111H220.627V331.717H161.285V329.111Z" fill="#E6E6E6"/>
<path d="M65.6203 314.833H147.35V498.168H65.6203V314.833Z" fill="#F0F0F0"/>
<path d="M65.6106 498.168H54.793L54.793 314.833H65.6106L65.6106 498.168Z" fill="#E0E0E0"/>
<path d="M135.127 483.89V329.111H137.013V483.89H135.127Z" fill="#E6E6E6"/>
<path d="M147.338 498.168V316.918H149.224V498.168H147.338Z" fill="#E6E6E6"/>
<path d="M77.6699 329.111H137.012V331.717H77.6699V329.111Z" fill="#E6E6E6"/>
<path d="M152.821 355.388H156.881V395.903H152.821V355.388Z" fill="#E0E0E0"/>
<path d="M139.71 355.388H143.77V395.903H139.71V355.388Z" fill="#E0E0E0"/>
<path d="M88.2252 123.656H504.955V285.834H88.2252V123.656Z" fill="#E0E0E0"/>
<path d="M92.0455 123.656H508.775V285.834H92.0455V123.656Z" fill="#F0F0F0"/>
<path d="M104.547 272.195L104.547 137.296L496.274 137.296V272.195H104.547Z" fill="#FAFAFA"/>
<path d="M432.684 272.195L406.726 137.296H349.426L375.384 272.195H432.684Z" fill="white"/>
<path d="M351.203 272.195L325.246 137.296H296.59L322.559 272.195H351.203Z" fill="white"/>
<path d="M176.26 272.195L150.302 137.296H121.646L147.616 272.195H176.26Z" fill="white"/>
<path d="M298.499 557C170.643 557 66.9945 550.397 66.9945 542.253C66.9945 534.108 170.643 527.506 298.499 527.506C426.356 527.506 530.004 534.108 530.004 542.253C530.004 550.397 426.356 557 298.499 557Z" fill="#F5F5F5"/>
<path d="M398.793 150.649C395.784 143.132 422.434 136.319 430.494 159.482C437.801 180.495 449.932 185.862 444.225 200.414C438.052 216.164 403.127 218.053 387.964 200.596C375.665 186.435 389.014 180.469 387.295 167.155C385.576 153.841 389.181 149.503 398.793 150.649Z" fill="#263238"/>
<path d="M447.343 195.75C448.728 187.543 445.934 184.155 442.4 179.869C437.624 174.582 434.352 167.899 432.979 160.628C432.268 156.657 430.448 153.023 427.77 150.225C425.091 147.426 421.685 145.6 418.019 144.995C410.138 143.406 401.792 146.22 399.583 149.789C399.232 150.292 399.031 150.901 399.01 151.534C398.988 152.166 399.147 152.79 399.464 153.32L400.467 152.616C400.274 152.301 400.18 151.926 400.199 151.548C400.218 151.169 400.35 150.808 400.574 150.519C402.532 147.34 410.485 144.8 417.792 146.285C423.01 147.34 429.732 150.727 431.809 160.915C433.224 168.403 436.596 175.285 441.517 180.729C444.955 184.898 447.487 187.92 446.161 195.502L447.343 195.75Z" fill="#263238"/>
<path d="M463.76 189.51L464.5 186.904C465.011 185.134 465.937 183.539 467.186 182.28L469.574 179.909C470.329 179.147 471.305 178.697 472.332 178.637C473.359 178.578 474.373 178.912 475.198 179.583L477.753 181.667C478.22 182.048 478.613 182.526 478.91 183.074C479.206 183.622 479.4 184.228 479.48 184.858C479.56 185.489 479.524 186.13 479.376 186.745C479.227 187.36 478.967 187.937 478.613 188.441L476.965 190.786C476.965 190.786 473.097 197.925 467.497 200.401L466.207 199.202C464.974 198.026 464.084 196.48 463.649 194.757C463.213 193.034 463.252 191.209 463.76 189.51Z" fill="#FFC3BD"/>
<path d="M417.35 234.741L418.114 235.379L418.735 235.874L419.929 236.786C420.729 237.359 421.541 237.894 422.317 238.415C423.941 239.433 425.615 240.355 427.331 241.176C430.86 242.875 434.571 244.083 438.376 244.772C442.394 245.509 446.494 245.535 450.519 244.85C452.579 244.497 454.602 243.925 456.561 243.144C457.05 242.974 457.54 242.753 458.017 242.531L458.734 242.206L459.092 242.036L459.486 241.854L459.987 241.593C461.029 241.011 461.99 240.27 462.841 239.392C463.453 238.771 464.016 238.095 464.525 237.372C465.875 235.374 466.968 233.182 467.772 230.859C468.489 228.931 469.038 227.081 469.527 225.27C470.418 221.766 471.139 218.213 471.689 214.627C472.779 207.695 473.39 200.684 473.515 193.652C473.663 192.336 473.345 191.008 472.627 189.938C471.908 188.869 470.843 188.138 469.648 187.896C468.453 187.653 467.218 187.917 466.195 188.633C465.173 189.35 464.438 190.464 464.142 191.75V191.894C462.065 198.134 460.071 204.53 457.969 210.601C456.883 213.624 455.832 216.633 454.638 219.369C454.065 220.736 453.444 222.039 452.859 223.173C452.461 224.003 451.95 224.763 451.343 225.426C451.343 225.426 451.343 225.426 451.426 225.244C451.701 224.933 452.025 224.677 452.382 224.488L452.608 224.358C452.68 224.358 452.823 224.267 452.74 224.293H452.549L452.179 224.397C451.932 224.481 451.681 224.546 451.426 224.593C450.418 224.812 449.397 224.947 448.37 224.996C446.22 225.068 444.071 224.823 441.982 224.267C439.689 223.636 437.458 222.763 435.319 221.661C434.209 221.114 433.11 220.476 432.036 219.838C431.498 219.512 430.973 219.16 430.472 218.821L429.278 217.988L428.346 217.349C426.248 215.894 423.715 215.382 421.279 215.922C418.842 216.461 416.692 218.009 415.28 220.242C413.867 222.474 413.303 225.216 413.704 227.893C414.106 230.57 415.442 232.973 417.433 234.598L417.35 234.741Z" fill="#FFC3BD"/>
<path d="M396.409 536.573C388.85 533.85 382.486 528.275 383.764 518.491C384.325 514.296 371.991 512.655 371.991 512.655C373.388 525.982 371.86 528.288 370.391 531.297C368.923 534.306 369.006 537.993 371.585 538.319C374.642 538.723 375.322 538.319 379.119 538.905C383.561 539.543 386.439 542.071 395.31 542.071C400.098 542.071 398.797 537.433 396.409 536.573Z" fill="#005642"/>
<path d="M373.42 394.222C372.549 327.47 378.196 291.084 378.196 291.084L423.461 293.547C423.461 293.547 416.763 354.619 404.87 399.603C401.694 423.743 394.542 464.57 389.587 491.993C382.235 491.307 374.966 489.805 367.892 487.512C366.161 463.424 365.85 428.602 373.42 394.222Z" fill="#005642"/>
<path d="M372.443 519.194C372.443 519.194 370.676 506.584 369.482 487.512C375.489 489.794 381.72 491.298 388.049 491.993C385.47 508.642 383.631 519.247 383.631 519.247C380.012 520.667 376.051 520.648 372.443 519.194Z" fill="#FFC3BD"/>
<path d="M392.06 484.007C391.666 486.3 390.567 492.045 389.481 494.065C389.418 494.181 389.331 494.281 389.228 494.355C389.124 494.43 389.007 494.477 388.884 494.494C380.442 495.654 372.012 493.804 368.586 492.136C368.49 492.094 368.403 492.031 368.331 491.95C368.259 491.869 368.204 491.773 368.168 491.668C367.213 488.906 366.866 483.095 366.759 480.646C366.753 480.514 366.775 480.382 366.823 480.26C366.87 480.138 366.943 480.029 367.035 479.943C367.127 479.856 367.236 479.793 367.354 479.759C367.472 479.726 367.595 479.722 367.714 479.747C375.538 481.329 383.44 482.408 391.379 482.978C391.488 482.992 391.593 483.03 391.687 483.091C391.781 483.151 391.863 483.232 391.927 483.329C391.991 483.426 392.036 483.536 392.059 483.653C392.082 483.77 392.082 483.891 392.06 484.007Z" fill="#263238"/>
<path d="M422.864 215.056C429.574 216.359 439.807 222.547 439.807 222.547C439.807 222.547 445.192 236.617 438.744 246.752C432.392 248.394 429.192 247.052 429.192 247.052L422.864 215.056Z" fill="#263238"/>
<path opacity="0.2" d="M438.746 246.752C432.394 248.394 429.194 247.052 429.194 247.052L429.421 228.071C433.731 234.402 437.325 240.681 438.746 246.752Z" fill="black"/>
<path opacity="0.2" d="M373.66 354.841C378.723 341.331 384.167 330.206 386.257 320.044C389.839 347.676 387.021 373.092 373.398 391.304C373.242 377.86 373.374 365.692 373.66 354.841Z" fill="black"/>
<path d="M304.469 460.78L322.534 474.797C337.28 453.836 359.393 421.815 364.742 407.875C378.33 372.506 405.648 294.537 405.648 294.537L370.187 285.548C370.187 285.548 347.811 308.216 333.376 393.754C321.292 412.487 311.119 440.053 304.469 460.78Z" fill="#005642"/>
<path d="M305.507 527.219C301.006 517.618 300.946 507.04 305.806 498.702C307.895 495.133 297.281 488.085 297.281 488.085C293.531 500.865 290.475 501.607 287.872 503.588C285.269 505.568 285.006 509.828 287.203 511.274C289.601 512.811 291.643 514.928 293.173 517.462C295.895 521.37 297.424 526.737 301.328 530.085C303.824 532.209 307.489 531.427 305.507 527.219Z" fill="#005642"/>
<path d="M295.309 493.947C295.309 493.947 298.425 481.988 304.538 464.076C309.155 468.847 314.264 473.017 319.762 476.504C311.129 490.521 304.813 500.591 304.813 500.591C301.143 499.378 297.853 497.078 295.309 493.947Z" fill="#FFC3BD"/>
<path d="M326.438 471.032C325.244 472.934 322.044 477.689 320.289 479.031C320.186 479.11 320.068 479.163 319.944 479.185C319.82 479.208 319.693 479.2 319.572 479.161C311.453 476.425 304.468 470.941 301.913 467.853C301.841 467.771 301.787 467.672 301.754 467.564C301.721 467.456 301.71 467.341 301.722 467.228C301.889 464.297 303.776 458.838 304.599 456.559C304.644 456.438 304.714 456.329 304.802 456.242C304.891 456.154 304.996 456.089 305.111 456.051C305.225 456.014 305.346 456.005 305.464 456.025C305.582 456.045 305.695 456.094 305.793 456.168C312.309 461.128 319.087 465.665 326.091 469.755C326.198 469.807 326.292 469.882 326.369 469.977C326.446 470.073 326.503 470.185 326.535 470.306C326.568 470.428 326.577 470.556 326.56 470.681C326.543 470.806 326.501 470.926 326.438 471.032Z" fill="#263238"/>
<path d="M433.108 234.493C431.484 246.023 437.777 254.959 428.093 260.275C429.705 269.042 427.317 286.551 423.484 293.495C418.099 296.686 391.76 291.97 370.232 285.535C370.542 275.504 378.1 255.767 375.999 222.912C375.886 221.115 376.12 219.312 376.687 217.619C377.253 215.927 378.139 214.384 379.287 213.089C380.436 211.795 381.821 210.778 383.352 210.105C384.884 209.431 386.528 209.117 388.178 209.181C390.04 209.181 392.022 209.377 394.028 209.572C401.081 210.066 408.092 211.111 415.007 212.699C417.24 213.272 419.544 213.923 421.729 214.601C425.528 215.824 428.783 218.524 430.88 222.19C432.977 225.856 433.77 230.233 433.108 234.493Z" fill="#263238"/>
<path d="M417.898 225.726C417.898 225.726 411.152 223.042 407.618 229.634C401.732 226.026 393.457 210.77 394.042 209.611C403.893 212.568 417.898 225.726 417.898 225.726Z" fill="white"/>
<path d="M417.898 225.726C417.898 225.726 423.02 225.062 424.465 230.012C424.465 220.241 418.423 214.092 415.784 212.946C416.704 215.499 417.898 225.726 417.898 225.726Z" fill="white"/>
<path d="M396.622 183.752C397.374 191.373 397.494 203.618 394.031 209.624C394.031 209.624 407.165 219.434 417.911 225.726C421.29 217.193 415.798 212.946 415.798 212.946C410.675 210.81 410.723 203.658 411.416 198.186L396.622 183.752Z" fill="#FFC3BD"/>
<path opacity="0.2" d="M411.389 198.186L403.031 189.979C402.75 191.51 402.841 193.096 403.293 194.577C404.741 198.847 407.523 202.422 411.15 204.674C411.018 202.508 411.098 200.333 411.389 198.186Z" fill="black"/>
<path d="M393.922 169.591C395.116 181.967 395.295 187.217 401.145 193.34C409.957 202.55 423.366 198.329 425.575 185.849C427.569 174.606 425.384 156.264 414.303 151.795C403.223 147.327 392.823 157.228 393.922 169.591Z" fill="#FFC3BD"/>
<path d="M396.405 178.645C398.156 176.816 399.179 174.311 399.255 171.668C399.331 169.025 398.454 166.455 396.811 164.51C393.826 161.214 389.647 168.041 389.647 168.041L396.405 178.645Z" fill="#263238"/>
<path d="M410.246 173.017C410.246 174.033 410.807 174.828 411.44 174.802C412.073 174.776 412.502 173.929 412.467 172.926C412.431 171.923 411.905 171.115 411.273 171.141C410.64 171.167 410.21 171.962 410.246 173.017Z" fill="#263238"/>
<path d="M421.634 172.717C421.634 173.721 422.184 174.515 422.828 174.489C423.473 174.463 423.891 173.629 423.855 172.613C423.819 171.597 423.306 170.815 422.661 170.841C422.017 170.868 421.599 171.701 421.634 172.717Z" fill="#263238"/>
<path d="M422.399 170.907L424.596 170.112C424.596 170.112 423.521 172.053 422.399 170.907Z" fill="#263238"/>
<path d="M418.83 173.108C419.753 175.38 420.958 177.501 422.412 179.413C421.953 179.799 421.423 180.071 420.858 180.211C420.293 180.35 419.707 180.354 419.141 180.221L418.83 173.108Z" fill="#ED847E"/>
<path d="M413.898 184.182C414.416 184.261 414.939 184.288 415.462 184.26C415.533 184.256 415.6 184.223 415.648 184.167C415.697 184.112 415.725 184.037 415.725 183.96C415.723 183.921 415.714 183.882 415.699 183.846C415.684 183.811 415.662 183.779 415.636 183.752C415.609 183.725 415.578 183.705 415.544 183.691C415.51 183.678 415.474 183.672 415.438 183.673C414.288 183.748 413.139 183.528 412.081 183.03C411.024 182.533 410.088 181.771 409.349 180.807C409.329 180.775 409.304 180.748 409.275 180.726C409.246 180.705 409.213 180.69 409.179 180.683C409.144 180.676 409.109 180.676 409.074 180.684C409.04 180.692 409.007 180.707 408.979 180.729C408.949 180.751 408.923 180.78 408.903 180.813C408.884 180.846 408.87 180.883 408.863 180.922C408.857 180.96 408.857 181 408.865 181.039C408.872 181.077 408.886 181.114 408.907 181.146C410.145 182.828 411.935 183.917 413.898 184.182Z" fill="#263238"/>
<path d="M392.037 179.961C392.48 180.984 393.118 181.892 393.909 182.625C394.7 183.357 395.625 183.897 396.622 184.208C399.165 184.898 400.347 181.85 399.559 178.801C398.855 176.052 396.67 172.392 394.162 173.056C391.655 173.721 390.807 177.29 392.037 179.961Z" fill="#FFC3BD"/>
<path d="M399.799 151.991C407.837 157.462 416.862 160.977 426.258 162.295C426.258 153.398 410.306 143.406 399.799 151.991Z" fill="#263238"/>
<path d="M405.96 153.072C407.81 160.889 389.244 175.219 392.826 189.002C386.76 178.697 391.13 155.508 391.13 155.508C391.13 155.508 406.772 144.708 405.96 153.072Z" fill="#263238"/>
<path d="M407.867 166.373C407.94 166.362 408.009 166.334 408.071 166.292C408.132 166.249 408.185 166.192 408.225 166.126C408.594 165.498 409.093 164.973 409.682 164.595C410.271 164.217 410.934 163.996 411.616 163.95C411.687 163.953 411.758 163.941 411.825 163.914C411.891 163.887 411.952 163.845 412.003 163.792C412.055 163.738 412.095 163.674 412.123 163.602C412.151 163.531 412.166 163.454 412.165 163.377C412.169 163.298 412.157 163.219 412.132 163.144C412.106 163.07 412.067 163.003 412.017 162.945C411.967 162.888 411.906 162.843 411.839 162.811C411.773 162.78 411.701 162.764 411.628 162.764C410.766 162.805 409.926 163.072 409.178 163.541C408.43 164.01 407.796 164.669 407.33 165.461C407.289 165.525 407.261 165.597 407.246 165.673C407.231 165.749 407.231 165.828 407.244 165.904C407.257 165.981 407.284 166.053 407.324 166.118C407.363 166.183 407.414 166.239 407.473 166.282C407.53 166.325 407.594 166.355 407.662 166.37C407.729 166.386 407.799 166.387 407.867 166.373Z" fill="#263238"/>
<path d="M426.673 165.943C426.813 165.933 426.944 165.868 427.044 165.761C427.094 165.706 427.134 165.641 427.162 165.57C427.189 165.498 427.203 165.421 427.203 165.344C427.203 165.266 427.189 165.19 427.162 165.118C427.134 165.046 427.094 164.982 427.044 164.927C426.448 164.244 425.711 163.727 424.895 163.419C424.078 163.111 423.206 163.02 422.351 163.155C422.211 163.19 422.089 163.283 422.011 163.414C421.933 163.546 421.905 163.705 421.933 163.859C421.947 163.935 421.975 164.008 422.016 164.073C422.056 164.137 422.108 164.192 422.168 164.235C422.228 164.277 422.295 164.306 422.365 164.32C422.436 164.334 422.508 164.332 422.578 164.315C423.256 164.22 423.944 164.302 424.588 164.554C425.231 164.805 425.811 165.218 426.279 165.761C426.384 165.876 426.525 165.942 426.673 165.943Z" fill="#263238"/>
<path d="M411.008 171.206L413.205 170.425C413.205 170.425 412.142 172.366 411.008 171.206Z" fill="#263238"/>
<path opacity="0.2" d="M376.286 229.282C376.501 236.238 376.289 243.201 375.653 250.126C381.623 243.248 389.122 230.259 389.611 223.746L376.286 229.282Z" fill="black"/>
<path d="M337.303 204.817L336.001 196.545L324.216 201.508C324.216 201.508 326.951 209.207 331.977 212.607L333.374 211.643C334.47 210.916 335.395 209.921 336.077 208.736C336.759 207.551 337.178 206.209 337.303 204.817Z" fill="#FFC3BD"/>
<path d="M328.645 191.933L324.765 194.239C323.917 194.741 323.286 195.588 323.008 196.596C322.731 197.604 322.83 198.691 323.284 199.619L324.204 201.508L335.988 196.545L333.182 192.884C332.641 192.181 331.895 191.703 331.068 191.53C330.242 191.357 329.387 191.499 328.645 191.933Z" fill="#FFC3BD"/>
<path d="M378.389 214.262L376.884 215.955L375.249 217.766C374.138 218.952 373.028 220.163 371.881 221.31C369.613 223.642 367.273 225.804 364.92 227.823C362.702 229.722 360.346 231.421 357.876 232.904C355.987 234.063 353.932 234.865 351.798 235.275L355.01 235.926C355.798 236.343 355.75 236.526 355.583 236.382C355.261 236.147 354.964 235.871 354.7 235.562C353.826 234.57 353.028 233.502 352.312 232.37C350.688 229.856 349.04 227.003 347.536 224.045C346.031 221.088 344.431 218.053 342.891 214.926L338.294 205.651V205.573C337.755 204.467 336.873 203.607 335.807 203.146C334.74 202.684 333.557 202.652 332.471 203.055C331.384 203.457 330.464 204.268 329.875 205.343C329.286 206.418 329.066 207.686 329.256 208.921C329.805 212.672 330.557 216.216 331.393 219.825C332.229 223.433 333.124 227.003 334.318 230.585C335.488 234.279 336.876 237.887 338.473 241.385C339.4 243.354 340.449 245.252 341.614 247.065C342.349 248.183 343.172 249.229 344.073 250.191C345.409 251.644 346.985 252.807 348.718 253.618C349.569 254.013 350.48 254.23 351.404 254.256H351.93C356.648 254.286 361.317 253.216 365.625 251.116C367.526 250.229 369.384 249.234 371.189 248.133C372.916 247.021 374.584 245.871 376.192 244.681C379.316 242.294 382.292 239.682 385.099 236.864C386.472 235.483 387.833 234.09 389.135 232.617C389.78 231.888 390.436 231.158 391.069 230.39C391.702 229.621 392.263 228.918 393.039 227.941C394.755 225.868 395.647 223.135 395.517 220.345C395.387 217.555 394.247 214.936 392.347 213.063C390.447 211.191 387.943 210.218 385.385 210.36C382.828 210.502 380.427 211.746 378.711 213.819L378.389 214.262Z" fill="#FFC3BD"/>
<path d="M387.654 209.246C378.902 209.533 370.197 220.971 370.197 220.971C370.197 220.971 373.564 236.148 383.152 242.688C388.549 238.102 393.122 234.428 393.122 234.428C400.752 222.222 398.209 214.119 387.654 209.246Z" fill="#263238"/>
<path d="M425.229 292.648C424.584 296.725 423.808 299.93 423.557 300.907C423.533 301.011 423.49 301.108 423.43 301.193C423.371 301.278 423.296 301.349 423.211 301.402C421.933 302.171 416.107 305.31 405.408 304.62C393.468 303.916 375.953 296.804 366.866 289.235C366.734 289.123 366.639 288.967 366.596 288.79C366.552 288.614 366.564 288.426 366.627 288.258C367.329 286.56 368.147 284.923 369.075 283.359C369.166 283.209 369.298 283.095 369.453 283.034C369.608 282.973 369.777 282.968 369.935 283.021C373.851 284.323 398.507 292.022 424.477 291.684C424.587 291.684 424.696 291.711 424.796 291.761C424.896 291.812 424.985 291.885 425.056 291.977C425.127 292.069 425.18 292.176 425.21 292.292C425.24 292.408 425.246 292.529 425.229 292.648Z" fill="#005642"/>
<path opacity="0.3" d="M425.229 292.648C424.584 296.725 423.808 299.93 423.557 300.907C423.533 301.011 423.49 301.108 423.43 301.193C423.371 301.278 423.296 301.349 423.211 301.402C421.933 302.171 416.107 305.31 405.408 304.62C393.468 303.916 375.953 296.804 366.866 289.235C366.734 289.123 366.639 288.967 366.596 288.79C366.552 288.614 366.564 288.426 366.627 288.258C367.329 286.56 368.147 284.923 369.075 283.359C369.166 283.209 369.298 283.095 369.453 283.034C369.608 282.973 369.777 282.968 369.935 283.021C373.851 284.323 398.507 292.022 424.477 291.684C424.587 291.684 424.696 291.711 424.796 291.761C424.896 291.812 424.985 291.885 425.056 291.977C425.127 292.069 425.18 292.176 425.21 292.292C425.24 292.408 425.246 292.529 425.229 292.648Z" fill="white"/>
<path d="M185.941 503.392H343.143C346.051 503.422 348.933 502.794 351.607 501.549C354.282 500.304 356.691 498.469 358.684 496.159C360.677 493.849 362.21 491.114 363.187 488.126C364.164 485.138 364.564 481.961 364.361 478.796L345.257 122.301C344.821 115.684 342.126 109.486 337.704 104.932C333.283 100.378 327.457 97.7994 321.377 97.7056H164.139C161.231 97.6763 158.35 98.3038 155.675 99.5486C153.001 100.793 150.591 102.629 148.598 104.939C146.606 107.249 145.072 109.984 144.095 112.972C143.118 115.96 142.719 119.137 142.922 122.301L162.085 478.796C162.521 485.409 165.212 491.604 169.629 496.157C174.045 500.71 179.866 503.292 185.941 503.392Z" fill="#005642"/>
<path opacity="0.8" d="M185.941 503.392H343.143C346.051 503.422 348.933 502.794 351.607 501.549C354.282 500.304 356.691 498.469 358.684 496.159C360.677 493.849 362.21 491.114 363.187 488.126C364.164 485.138 364.564 481.961 364.361 478.796L345.257 122.301C344.821 115.684 342.126 109.486 337.704 104.932C333.283 100.378 327.457 97.7994 321.377 97.7056H164.139C161.231 97.6763 158.35 98.3038 155.675 99.5486C153.001 100.793 150.591 102.629 148.598 104.939C146.606 107.249 145.072 109.984 144.095 112.972C143.118 115.96 142.719 119.137 142.922 122.301L162.085 478.796C162.521 485.409 165.212 491.604 169.629 496.157C174.045 500.71 179.866 503.292 185.941 503.392Z" fill="white"/>
<path d="M186.874 496.253H339.706C341.748 496.275 343.773 495.835 345.653 494.961C347.532 494.087 349.225 492.798 350.626 491.176C352.027 489.553 353.105 487.632 353.792 485.533C354.479 483.434 354.76 481.202 354.619 478.979L335.515 124.034C335.208 119.396 333.324 115.051 330.23 111.852C327.137 108.653 323.06 106.832 318.799 106.747H165.967C163.923 106.727 161.898 107.168 160.019 108.044C158.139 108.919 156.446 110.209 155.046 111.832C153.645 113.456 152.567 115.378 151.88 117.478C151.193 119.578 150.912 121.81 151.054 124.034L170.158 478.979C170.464 483.615 172.349 487.959 175.443 491.156C178.536 494.353 182.614 496.171 186.874 496.253Z" fill="#005642"/>
<path d="M188.52 494.351H341.352C343.395 494.371 345.42 493.929 347.3 493.054C349.179 492.179 350.873 490.889 352.273 489.265C353.674 487.642 354.751 485.72 355.438 483.62C356.125 481.52 356.407 479.288 356.265 477.064L337.161 122.119C336.855 117.481 334.97 113.136 331.877 109.937C328.784 106.738 324.706 104.917 320.445 104.832H167.613C165.57 104.812 163.545 105.253 161.665 106.129C159.786 107.004 158.093 108.294 156.692 109.917C155.291 111.541 154.214 113.463 153.527 115.563C152.84 117.663 152.558 119.895 152.7 122.119L171.804 477.064C172.11 481.702 173.995 486.047 177.088 489.246C180.181 492.445 184.259 494.266 188.52 494.351Z" fill="white"/>
<path opacity="0.1" d="M192.987 481.154H335.514C336.777 481.167 338.029 480.894 339.19 480.353C340.352 479.812 341.398 479.015 342.264 478.012C343.129 477.009 343.796 475.821 344.22 474.524C344.645 473.226 344.819 471.847 344.732 470.472L336.708 322.415C336.52 319.542 335.351 316.851 333.432 314.873C331.513 312.895 328.984 311.775 326.344 311.733H183.876C182.614 311.721 181.362 311.993 180.201 312.534C179.039 313.075 177.992 313.872 177.127 314.875C176.261 315.878 175.595 317.066 175.17 318.364C174.746 319.661 174.571 321.041 174.659 322.415L182.623 470.472C182.811 473.345 183.98 476.036 185.899 478.014C187.818 479.992 190.347 481.113 192.987 481.154Z" fill="#005642"/>
<path opacity="0.1" d="M224.638 131.16H266.177C266.629 131.165 267.076 131.068 267.491 130.875C267.907 130.681 268.281 130.397 268.59 130.038C268.9 129.68 269.138 129.255 269.29 128.791C269.442 128.327 269.504 127.834 269.473 127.343C269.407 126.313 268.988 125.347 268.301 124.638C267.613 123.928 266.706 123.527 265.759 123.513H224.232C223.775 123.501 223.322 123.593 222.9 123.783C222.478 123.974 222.097 124.259 221.782 124.62C221.468 124.98 221.225 125.409 221.071 125.878C220.917 126.347 220.855 126.846 220.889 127.343C220.955 128.379 221.379 129.348 222.075 130.057C222.77 130.765 223.686 131.159 224.638 131.16Z" fill="#005642"/>
<path opacity="0.1" d="M208.114 274.056C182.535 246.954 180.789 203.648 204.214 177.329C227.639 151.01 267.364 151.645 292.943 178.747C318.522 205.849 320.268 249.155 296.843 275.474C273.419 301.793 233.693 301.158 208.114 274.056Z" fill="#005642"/>
<path d="M294.44 271.713C299.666 265.642 303.687 258.458 306.249 250.611C308.811 242.765 309.86 234.426 309.329 226.117H308.135C308.652 234.247 307.625 242.407 305.119 250.085C302.612 257.762 298.68 264.793 293.568 270.736L294.44 271.713Z" fill="#005642"/>
<path d="M191.733 226.677L192.927 226.599C192.601 220.86 193.003 215.1 194.121 209.481L192.927 209.194C191.785 214.933 191.383 220.817 191.733 226.677Z" fill="#005642"/>
<path d="M197.582 198.147C200.504 191.073 204.684 184.703 209.88 179.405C215.076 174.107 221.184 169.988 227.85 167.285L227.432 166.06C220.613 168.819 214.366 173.03 209.055 178.45C203.744 183.869 199.474 190.388 196.495 197.626L197.582 198.147Z" fill="#005642"/>
<path d="M213.573 267.925C191.281 244.306 189.757 206.569 210.169 183.636C230.58 160.704 265.197 161.259 287.488 184.878C309.779 208.496 311.303 246.233 290.892 269.166C270.481 292.099 235.864 291.543 213.573 267.925Z" fill="#005642"/>
<path d="M256.603 234.493C253.976 233.855 252.746 231.406 252.185 228.618C252.125 228.318 252.078 228.032 252.03 227.745V227.485C251.887 226.323 251.807 225.153 251.791 223.98C254.334 223.706 256.696 222.42 258.426 220.369C260.157 218.317 261.136 215.643 261.176 212.855C261.308 207.327 260.184 201.849 257.904 196.909C258.491 196.993 259.047 197.245 259.516 197.639C259.562 197.677 259.614 197.703 259.67 197.717C259.725 197.73 259.783 197.73 259.839 197.717C259.942 197.698 260.036 197.637 260.101 197.548C260.165 197.45 260.192 197.329 260.176 197.21C260.16 197.092 260.104 196.984 260.018 196.909C259.275 196.297 258.369 195.968 257.439 195.971C257.26 195.659 257.092 195.333 256.913 195.033C257.678 195.033 258.418 195.033 259.134 195.033C258.346 189.015 247.731 183.96 240.496 188.52C237.272 189.223 231.947 194.252 231.947 194.252C231.84 197.455 231.924 200.662 232.198 203.853C232.675 209.298 233.857 215.695 236.735 219.264C236.019 217.438 235.755 215.439 235.971 213.467C236.66 214.211 237.517 214.746 238.454 215.017C238.794 215.816 239.194 216.583 239.648 217.31C240.77 222.899 241.57 230.338 239.863 234.624C238.323 234.728 236.83 234.884 235.409 235.054L235.063 235.119C234.126 234.518 233.224 233.852 232.365 233.126C221.619 224.006 233.021 213.298 230.335 203.488C227.648 193.679 229.917 189.953 237.26 189.64C234.215 184.338 253.558 175.87 262.059 192.324C269.761 207.24 272.244 214.692 269.474 226.351C268.433 230.162 266.074 233.381 262.895 235.327C262.354 235.166 261.804 235.044 261.248 234.962C259.731 234.806 258.155 234.624 256.603 234.493Z" fill="#263238"/>
<path d="M273.307 257.422C273.745 256.576 274.143 255.706 274.501 254.816C275.313 257.422 276.113 260.027 276.889 262.633C277.629 264.978 278.334 267.322 279.074 269.563L280.184 272.729L280.662 274.032C280.829 274.383 280.662 274.175 280.662 274.279C281.171 274.926 281.734 275.519 282.345 276.051C282.477 276.194 282.644 276.324 282.787 276.455C279.483 278.886 275.929 280.884 272.196 282.408C272.113 276.455 271.444 270.267 270.728 268.612C275.026 265.355 274.381 261.851 273.307 257.422Z" fill="#FFC3BD"/>
<path d="M269.127 239.848L269.426 240.304C269.33 240.147 269.223 240.004 269.115 239.861L269.127 239.848Z" fill="#263238"/>
<path d="M271.886 248.576C271.903 245.708 271.106 242.905 269.605 240.551C271.894 244.48 273.776 248.675 275.217 253.057C275.217 253.057 275.002 253.748 274.548 254.829C274.191 255.719 273.792 256.589 273.354 257.435C272.503 254.567 272.009 251.587 271.886 248.576Z" fill="#263238"/>
<path d="M230.262 267.479C231.677 265.21 232.935 262.827 234.023 260.353C234.381 260.561 234.751 260.77 235.133 260.952C238.715 256.822 241.772 253.487 241.772 253.487C246.238 243.326 243.479 237.542 235.014 235.184C233.7 235.479 232.446 236.031 231.313 236.812C232.429 235.956 233.712 235.394 235.062 235.171L235.408 235.106C236.829 234.936 238.321 234.78 239.862 234.676C239.527 235.627 247.193 247.703 252.005 249.618C253.975 244.199 259.503 243.834 259.503 243.834C259.503 243.834 264.661 242.675 266.261 246.218C265.21 238.897 258.751 235.041 256.602 234.493C258.154 234.637 259.73 234.819 261.246 235.028C261.802 235.109 262.353 235.231 262.894 235.392C265.351 236.128 267.53 237.697 269.115 239.874C269.222 240.017 269.33 240.16 269.425 240.317L269.604 240.564C271.106 242.918 271.902 245.721 271.885 248.589C271.994 251.594 272.471 254.569 273.306 257.435C274.38 261.812 275.025 265.368 270.81 268.625C271.527 270.28 272.195 276.442 272.279 282.421C266.345 284.821 260.064 286.039 253.736 286.017C245.633 286.003 237.627 284.089 230.262 280.402C230.467 275.553 230.431 270.695 230.154 265.85C230.19 266.371 230.238 266.945 230.262 267.479Z" fill="#263238"/>
<path d="M259.506 243.834C259.506 243.834 253.978 244.199 252.008 249.618C247.232 247.638 239.53 235.627 239.865 234.676C239.865 234.676 250.742 240.434 259.506 243.834Z" fill="white"/>
<path d="M256.579 234.493C258.728 235.054 265.188 238.91 266.238 246.218C264.638 242.675 259.48 243.834 259.48 243.834C261.152 236.982 256.579 234.493 256.579 234.493Z" fill="white"/>
<path d="M239.648 217.362C240.686 219.005 241.999 220.419 243.517 221.531C244.155 222.032 244.835 222.468 245.547 222.834C247.111 225.573 249.443 227.688 252.197 228.866V228.644C252.758 231.432 253.988 233.855 256.615 234.519C256.615 234.519 261.188 237.021 259.54 243.873C250.764 240.473 239.899 234.754 239.899 234.754C241.571 230.403 240.771 222.951 239.648 217.362Z" fill="#FFC3BD"/>
<path d="M252.162 228.605C252.103 228.305 252.055 228.019 252.007 227.732C252.055 227.98 252.103 228.305 252.162 228.605Z" fill="#263238"/>
<path opacity="0.2" d="M252.162 228.605C252.103 228.305 252.055 228.019 252.007 227.732C252.055 227.98 252.103 228.305 252.162 228.605Z" fill="black"/>
<path d="M251.732 223.967C251.748 225.139 251.828 226.31 251.971 227.472C251.822 226.31 251.743 225.14 251.732 223.967Z" fill="#263238"/>
<path opacity="0.2" d="M251.732 223.967C251.748 225.139 251.828 226.31 251.971 227.472C251.822 226.31 251.743 225.14 251.732 223.967Z" fill="black"/>
<path d="M245.546 222.769C247.469 223.774 249.61 224.18 251.731 223.941C251.741 225.114 251.821 226.284 251.97 227.446V227.706C251.97 227.993 252.065 228.279 252.125 228.579V228.8C249.397 227.609 247.092 225.495 245.546 222.769Z" fill="#FFC3BD"/>
<path opacity="0.2" d="M245.546 222.769C247.469 223.774 249.61 224.18 251.731 223.941C251.741 225.114 251.821 226.284 251.97 227.446V227.706C251.97 227.993 252.065 228.279 252.125 228.579V228.8C249.397 227.609 247.092 225.495 245.546 222.769Z" fill="black"/>
<path d="M245.546 222.769C244.834 222.403 244.155 221.967 243.516 221.466C241.998 220.354 240.685 218.94 239.648 217.297C239.193 216.57 238.794 215.803 238.454 215.004C238.68 215.004 238.907 215.135 239.122 215.161C241.116 215.356 241.677 212.907 240.77 210.718C240.463 209.978 240.061 209.29 239.576 208.673C240.097 206.813 239.969 204.809 239.218 203.045C241.033 198.981 242.955 195.229 243.134 192.506C247.602 194.013 252.238 194.841 256.913 194.968C257.092 195.268 257.259 195.594 257.438 195.906C257.033 195.904 256.631 195.97 256.244 196.102C256.194 196.122 256.148 196.153 256.108 196.193C256.069 196.233 256.037 196.281 256.015 196.334C255.993 196.387 255.981 196.445 255.979 196.503C255.977 196.562 255.986 196.62 256.005 196.675C256.043 196.786 256.119 196.877 256.217 196.928C256.315 196.979 256.428 196.986 256.531 196.948C256.96 196.806 257.413 196.771 257.856 196.844C260.105 201.788 261.2 207.261 261.044 212.777C261.004 215.565 260.025 218.239 258.295 220.29C256.564 222.342 254.202 223.627 251.659 223.902C249.565 224.138 247.451 223.746 245.546 222.769ZM248.209 197.183C247.558 197.322 246.949 197.633 246.433 198.086C245.917 198.54 245.51 199.125 245.247 199.788C245.201 199.898 245.195 200.022 245.231 200.136C245.266 200.25 245.341 200.345 245.438 200.401C245.538 200.446 245.65 200.446 245.749 200.401C245.803 200.385 245.852 200.355 245.894 200.314C245.935 200.274 245.967 200.223 245.988 200.166C246.205 199.64 246.535 199.179 246.951 198.823C247.367 198.467 247.856 198.226 248.376 198.121C248.483 198.102 248.58 198.038 248.647 197.944C248.713 197.85 248.744 197.731 248.734 197.613C248.729 197.546 248.711 197.481 248.68 197.423C248.65 197.365 248.608 197.315 248.558 197.276C248.508 197.238 248.451 197.212 248.39 197.2C248.33 197.189 248.268 197.192 248.209 197.209V197.183ZM248.626 203.618C248.427 203.782 248.28 204.009 248.205 204.268C248.13 204.528 248.131 204.806 248.209 205.064C248.34 205.82 248.817 206.367 249.271 206.25C249.725 206.133 249.988 205.468 249.856 204.713C249.79 204.33 249.61 203.982 249.343 203.723C249.715 203.508 250.006 203.157 250.167 202.733L248.626 203.618ZM258.417 203.071C258.353 202.694 258.177 202.351 257.916 202.094C258.282 201.869 258.568 201.515 258.728 201.091L257.164 201.964C256.971 202.133 256.829 202.361 256.754 202.618C256.68 202.875 256.677 203.151 256.746 203.41C256.889 204.166 257.355 204.713 257.808 204.609C258.262 204.504 258.549 203.853 258.417 203.097V203.071ZM255.647 209.403C256.09 209.431 256.533 209.354 256.945 209.176C257.358 208.998 257.73 208.724 258.035 208.373C256.757 207.11 255.64 205.664 254.716 204.074L255.647 209.403ZM253.343 212.894C253.396 212.879 253.441 212.842 253.47 212.791C253.499 212.74 253.509 212.679 253.498 212.62C253.486 212.564 253.455 212.514 253.41 212.482C253.366 212.451 253.311 212.439 253.259 212.451C252.397 212.654 251.504 212.632 250.651 212.387C249.799 212.143 249.011 211.683 248.352 211.044C248.333 211.023 248.31 211.006 248.286 210.994C248.261 210.982 248.234 210.975 248.207 210.975C248.18 210.974 248.153 210.979 248.127 210.99C248.102 211.001 248.079 211.017 248.059 211.038C248.04 211.058 248.024 211.083 248.013 211.11C248.002 211.137 247.996 211.166 247.996 211.196C247.995 211.225 248 211.255 248.01 211.282C248.02 211.31 248.034 211.335 248.053 211.357C249.163 212.472 250.629 213.07 252.137 213.024C252.541 213.02 252.943 212.986 253.343 212.92V212.894Z" fill="#FFC3BD"/>
<path d="M237.606 207.136C238.107 205.833 238.681 204.439 239.266 203.136C240.017 204.9 240.145 206.904 239.624 208.764C239.094 208.037 238.398 207.475 237.606 207.136Z" fill="#263238"/>
<path d="M249.367 203.762C249.634 204.021 249.814 204.369 249.88 204.752C250.012 205.507 249.749 206.198 249.295 206.289C248.841 206.38 248.364 205.859 248.232 205.104C248.155 204.845 248.154 204.567 248.229 204.307C248.304 204.048 248.451 203.821 248.65 203.658C248.751 203.741 248.87 203.795 248.996 203.813C249.122 203.832 249.249 203.814 249.367 203.762Z" fill="#263238"/>
<path d="M256.709 203.449C256.64 203.19 256.643 202.914 256.718 202.657C256.792 202.4 256.934 202.172 257.127 202.003C257.23 202.086 257.351 202.14 257.478 202.16C257.605 202.181 257.734 202.167 257.855 202.12C258.116 202.377 258.292 202.72 258.357 203.097C258.488 203.853 258.225 204.543 257.772 204.648C257.318 204.752 256.912 204.205 256.709 203.449Z" fill="#263238"/>
<path d="M257.188 202.003L258.752 201.13C258.592 201.554 258.306 201.908 257.94 202.133C257.815 202.183 257.68 202.197 257.549 202.174C257.417 202.151 257.293 202.092 257.188 202.003Z" fill="#263238"/>
<path d="M258.023 208.439C257.718 208.79 257.346 209.063 256.934 209.241C256.521 209.419 256.078 209.496 255.635 209.468L254.692 204.14C255.62 205.73 256.741 207.176 258.023 208.439Z" fill="#ED847E"/>
<path d="M248.077 211.044C248.117 211.002 248.17 210.978 248.226 210.978C248.282 210.978 248.335 211.002 248.375 211.044C249.032 211.679 249.816 212.137 250.664 212.381C251.512 212.625 252.401 212.649 253.259 212.451C253.311 212.439 253.365 212.451 253.41 212.482C253.455 212.514 253.486 212.564 253.498 212.62C253.509 212.679 253.499 212.74 253.47 212.791C253.441 212.842 253.395 212.879 253.342 212.894C252.948 212.968 252.549 213.011 252.148 213.024C250.64 213.07 249.175 212.472 248.065 211.357C248.031 211.312 248.014 211.256 248.016 211.198C248.018 211.14 248.04 211.085 248.077 211.044Z" fill="#263238"/>
<path d="M237.605 207.136C238.397 207.475 239.093 208.037 239.623 208.764C240.108 209.381 240.51 210.07 240.817 210.81C241.724 212.998 241.163 215.447 239.169 215.252C238.954 215.252 238.727 215.148 238.5 215.096C237.563 214.824 236.707 214.289 236.017 213.545C236.267 211.338 236.801 209.18 237.605 207.136Z" fill="#FFC3BD"/>
<path d="M242.908 190.617C242.836 188.741 241.857 188.285 240.52 188.572C247.756 183.96 258.37 189.015 259.158 195.085C258.442 195.085 257.702 195.085 256.937 195.085C252.263 194.959 247.626 194.13 243.159 192.623C243.228 191.942 243.142 191.253 242.908 190.617Z" fill="#263238"/>
<path d="M242.906 190.617C243.132 191.237 243.218 191.907 243.157 192.571C242.977 195.333 241.055 199.085 239.24 203.11C238.655 204.413 238.046 205.716 237.581 207.11C236.777 209.154 236.242 211.312 235.993 213.519C235.777 215.491 236.041 217.49 236.757 219.316C233.879 215.747 232.697 209.351 232.219 203.905C231.946 200.714 231.862 197.507 231.969 194.304C231.969 194.304 237.294 189.275 240.518 188.572C241.855 188.285 242.834 188.741 242.906 190.617Z" fill="#263238"/>
<path d="M248.352 198.108C247.832 198.213 247.344 198.454 246.928 198.81C246.512 199.166 246.181 199.627 245.964 200.153C245.944 200.21 245.912 200.261 245.87 200.301C245.829 200.342 245.779 200.372 245.725 200.388C245.626 200.433 245.514 200.433 245.415 200.388C245.317 200.332 245.243 200.237 245.207 200.123C245.172 200.009 245.178 199.885 245.224 199.775C245.487 199.111 245.894 198.527 246.41 198.073C246.925 197.619 247.535 197.309 248.185 197.17C248.294 197.155 248.404 197.188 248.492 197.261C248.579 197.334 248.636 197.442 248.651 197.561C248.673 197.676 248.655 197.797 248.6 197.898C248.544 197.999 248.456 198.074 248.352 198.108Z" fill="#263238"/>
<path d="M256.603 197.014C256.5 197.051 256.387 197.044 256.289 196.993C256.191 196.942 256.115 196.851 256.077 196.74C256.058 196.685 256.049 196.627 256.051 196.568C256.053 196.51 256.065 196.452 256.087 196.399C256.109 196.346 256.141 196.298 256.18 196.258C256.22 196.218 256.266 196.187 256.316 196.167C256.703 196.035 257.105 195.97 257.51 195.971C258.441 195.968 259.347 196.297 260.089 196.909C260.175 196.984 260.232 197.092 260.248 197.21C260.263 197.329 260.236 197.45 260.173 197.548C260.107 197.637 260.014 197.698 259.91 197.717C259.854 197.73 259.797 197.73 259.741 197.717C259.686 197.703 259.633 197.677 259.588 197.639C259.119 197.245 258.563 196.993 257.976 196.909C257.517 196.828 257.047 196.864 256.603 197.014Z" fill="#263238"/>
<path d="M249.367 203.762C249.25 203.814 249.122 203.832 248.996 203.813C248.871 203.795 248.751 203.741 248.651 203.658L250.215 202.785C250.046 203.209 249.746 203.555 249.367 203.762Z" fill="#263238"/>
<path d="M230.262 267.479C230.262 266.945 230.191 266.371 230.167 265.824C230.835 264.665 231.516 263.492 232.22 262.333L233.594 260.105L234.023 260.353C232.935 262.827 231.678 265.21 230.262 267.479Z" fill="#263238"/>
<path opacity="0.2" d="M230.262 267.479C230.262 266.945 230.191 266.371 230.167 265.824C230.835 264.665 231.516 263.492 232.22 262.333L233.594 260.105L234.023 260.353C232.935 262.827 231.678 265.21 230.262 267.479Z" fill="black"/>
<path d="M226.719 278.266V278.474C221.957 275.666 217.57 272.16 213.68 268.052C214.333 265.951 215.098 263.893 215.973 261.89C217.131 259.166 218.419 256.509 219.83 253.93C221.024 251.69 222.289 249.553 223.591 247.417C224.785 250.139 228.176 256.692 233.561 260.066L232.187 262.294C231.483 263.453 230.802 264.626 230.134 265.785C229.549 266.801 228.94 267.831 228.45 268.847C227.531 270.605 226.671 272.377 226.062 274.058L226.182 274.944C226.325 276.025 226.504 277.132 226.719 278.266Z" fill="#FFC3BD"/>
<path d="M241.773 253.487C241.773 253.487 238.716 256.822 235.134 260.952C234.752 260.77 234.382 260.561 234.024 260.353L233.594 260.105C228.209 256.731 224.842 250.178 223.624 247.456C223.278 246.687 223.099 246.218 223.099 246.218C223.099 246.218 226.562 239.965 231.314 236.812C232.447 236.031 233.701 235.479 235.015 235.184C243.481 237.542 246.239 243.326 241.773 253.487Z" fill="#263238"/>
<path d="M184.52 122.809H167.697C167.237 122.801 166.797 122.605 166.464 122.26C166.13 121.915 165.927 121.447 165.894 120.946C165.879 120.708 165.91 120.469 165.983 120.244C166.057 120.019 166.173 119.814 166.323 119.64C166.474 119.466 166.655 119.328 166.857 119.235C167.058 119.141 167.275 119.094 167.494 119.097H184.329C184.787 119.105 185.225 119.299 185.559 119.641C185.892 119.983 186.097 120.449 186.132 120.946C186.149 121.187 186.119 121.429 186.045 121.656C185.972 121.883 185.855 122.091 185.703 122.266C185.552 122.442 185.368 122.581 185.164 122.674C184.961 122.768 184.741 122.814 184.52 122.809Z" fill="#005642"/>
<path d="M184.866 129.206H168.042C167.583 129.197 167.143 129.001 166.809 128.657C166.475 128.312 166.272 127.843 166.239 127.343C166.223 127.104 166.252 126.863 166.325 126.637C166.398 126.41 166.514 126.203 166.664 126.028C166.815 125.853 166.997 125.714 167.199 125.619C167.401 125.525 167.619 125.478 167.839 125.48H184.663C185.124 125.485 185.567 125.68 185.904 126.025C186.24 126.37 186.445 126.841 186.478 127.343C186.491 127.583 186.459 127.822 186.383 128.048C186.308 128.274 186.192 128.48 186.041 128.654C185.89 128.829 185.708 128.968 185.505 129.063C185.303 129.158 185.086 129.206 184.866 129.206Z" fill="#005642"/>
<path d="M320.971 129.206H304.147C303.686 129.198 303.245 129.002 302.909 128.658C302.574 128.313 302.368 127.844 302.332 127.343C302.317 127.103 302.348 126.862 302.423 126.636C302.497 126.409 302.614 126.202 302.765 126.027C302.917 125.852 303.099 125.713 303.302 125.619C303.505 125.525 303.724 125.478 303.944 125.48H320.768C321.228 125.486 321.67 125.68 322.004 126.026C322.338 126.371 322.541 126.842 322.571 127.343C322.585 127.582 322.555 127.822 322.481 128.047C322.407 128.273 322.292 128.479 322.142 128.654C321.992 128.829 321.81 128.968 321.609 129.063C321.407 129.158 321.19 129.206 320.971 129.206Z" fill="#005642"/>
<path d="M185.213 135.589H168.353C167.892 135.584 167.449 135.39 167.113 135.044C166.776 134.699 166.571 134.229 166.538 133.726C166.525 133.487 166.557 133.247 166.633 133.021C166.708 132.796 166.824 132.589 166.975 132.415C167.126 132.24 167.309 132.101 167.511 132.007C167.713 131.912 167.93 131.863 168.15 131.863H185.01C185.47 131.872 185.912 132.067 186.247 132.412C186.583 132.756 186.789 133.225 186.825 133.726C186.839 133.966 186.809 134.207 186.734 134.434C186.66 134.66 186.543 134.867 186.392 135.042C186.24 135.217 186.057 135.356 185.854 135.45C185.652 135.544 185.433 135.592 185.213 135.589Z" fill="#005642"/>
<path d="M207.328 369.314H309.104C311.005 369.333 312.889 368.924 314.637 368.11C316.386 367.297 317.961 366.097 319.264 364.587C320.567 363.077 321.57 361.29 322.209 359.337C322.848 357.383 323.11 355.307 322.979 353.238C322.692 348.914 320.931 344.865 318.042 341.889C315.152 338.912 311.346 337.226 307.373 337.162H205.596C203.696 337.143 201.812 337.553 200.063 338.366C198.315 339.18 196.739 340.379 195.436 341.889C194.133 343.399 193.131 345.187 192.491 347.14C191.852 349.093 191.59 351.169 191.722 353.238C192.008 357.562 193.77 361.612 196.659 364.588C199.548 367.564 203.355 369.25 207.328 369.314Z" fill="white"/>
<path d="M209.643 412.526H311.431C313.332 412.542 315.215 412.129 316.963 411.313C318.711 410.498 320.285 409.297 321.588 407.786C322.89 406.276 323.893 404.488 324.533 402.535C325.172 400.582 325.436 398.506 325.306 396.437C325.011 392.12 323.245 388.08 320.357 385.112C317.469 382.144 313.667 380.463 309.7 380.4H207.912C206.011 380.381 204.127 380.791 202.378 381.604C200.63 382.418 199.055 383.617 197.751 385.127C196.448 386.637 195.446 388.425 194.806 390.378C194.167 392.331 193.905 394.407 194.037 396.476C194.332 400.794 196.097 404.836 198.985 407.806C201.873 410.776 205.675 412.46 209.643 412.526Z" fill="white"/>
<path d="M211.972 455.725H313.749C315.65 455.744 317.533 455.334 319.282 454.521C321.03 453.707 322.606 452.508 323.909 450.998C325.212 449.488 326.215 447.701 326.854 445.747C327.493 443.794 327.755 441.718 327.623 439.649C327.337 435.324 325.576 431.273 322.687 428.295C319.798 425.316 315.991 423.627 312.017 423.56H210.241C208.34 423.543 206.456 423.954 204.707 424.769C202.958 425.584 201.383 426.785 200.08 428.296C198.777 429.806 197.775 431.595 197.136 433.549C196.497 435.503 196.235 437.58 196.367 439.649C196.653 443.973 198.415 448.023 201.304 450.999C204.193 453.975 207.999 455.661 211.972 455.725Z" fill="white"/>
<path d="M301.197 359C298.098 355.717 297.884 350.473 300.719 347.289C303.553 344.104 308.363 344.184 311.462 347.467C314.56 350.75 314.774 355.993 311.94 359.178C309.105 362.363 304.296 362.283 301.197 359Z" fill="#005642"/>
<path d="M307.227 388.608L306.224 392.737C306.166 392.964 306.041 393.164 305.869 393.305C305.696 393.447 305.485 393.522 305.269 393.519H301.293C301.069 393.521 300.852 393.604 300.674 393.753C300.497 393.903 300.369 394.112 300.311 394.349C300.253 394.585 300.267 394.835 300.352 395.062C300.436 395.289 300.587 395.479 300.78 395.603L304.135 398.209C304.326 398.347 304.472 398.547 304.553 398.781C304.634 399.015 304.647 399.27 304.589 399.512L303.586 403.641C303.526 403.878 303.535 404.13 303.611 404.361C303.687 404.593 303.826 404.793 304.01 404.935C304.193 405.078 304.413 405.155 304.638 405.156C304.863 405.158 305.084 405.084 305.269 404.944L308.35 402.339C308.525 402.205 308.733 402.133 308.947 402.133C309.16 402.133 309.369 402.205 309.544 402.339L312.899 404.944C313.075 405.097 313.292 405.181 313.517 405.182C313.742 405.184 313.96 405.103 314.138 404.953C314.316 404.803 314.442 404.592 314.496 404.354C314.551 404.116 314.531 403.865 314.439 403.641L312.994 399.512C312.906 399.288 312.888 399.038 312.944 398.802C313.001 398.566 313.127 398.357 313.305 398.209L316.385 395.603C316.555 395.444 316.675 395.232 316.73 394.996C316.785 394.759 316.772 394.51 316.692 394.282C316.613 394.054 316.471 393.858 316.285 393.722C316.1 393.585 315.881 393.515 315.657 393.519H311.681C311.456 393.519 311.235 393.444 311.05 393.305C310.864 393.165 310.722 392.967 310.642 392.737L309.245 388.608C309.182 388.369 309.049 388.16 308.867 388.011C308.685 387.862 308.464 387.781 308.236 387.781C308.009 387.781 307.787 387.862 307.605 388.011C307.424 388.16 307.291 388.369 307.227 388.608Z" fill="#005642"/>
<path d="M304.47 435.272L305.102 446.866C305.133 447.352 305.33 447.808 305.656 448.142C305.982 448.475 306.411 448.662 306.858 448.664H316.159C316.364 448.651 316.566 448.593 316.75 448.494C316.935 448.394 317.1 448.255 317.234 448.085C317.369 447.915 317.471 447.717 317.535 447.504C317.598 447.29 317.621 447.064 317.604 446.84L316.827 432.406C316.8 431.92 316.605 431.463 316.282 431.127C315.959 430.791 315.531 430.601 315.084 430.595H308.398L304.47 435.272Z" fill="#005642"/>
<path d="M308.46 430.621L304.437 435.272H307.051C307.264 435.274 307.475 435.229 307.671 435.138C307.866 435.047 308.042 434.913 308.188 434.744C308.334 434.575 308.446 434.375 308.518 434.156C308.589 433.938 308.619 433.706 308.604 433.474L308.46 430.621ZM309.523 427.429L309.69 430.543L309.845 433.396C309.866 433.812 309.81 434.227 309.681 434.619C309.552 435.011 309.352 435.37 309.093 435.676C308.831 435.978 308.514 436.218 308.163 436.382C307.811 436.546 307.433 436.629 307.051 436.627H301.583L303.541 434.347L307.553 429.696L309.523 427.429Z" fill="white"/>
<path opacity="0.2" d="M210.74 351.532H286.905C287.213 351.534 287.518 351.467 287.802 351.335C288.086 351.203 288.341 351.009 288.553 350.765C288.765 350.52 288.928 350.231 289.033 349.915C289.137 349.598 289.181 349.262 289.161 348.926C289.111 348.224 288.822 347.568 288.352 347.086C287.882 346.605 287.263 346.332 286.618 346.321H210.465C210.157 346.318 209.851 346.385 209.568 346.517C209.284 346.649 209.029 346.843 208.817 347.088C208.605 347.332 208.442 347.621 208.337 347.938C208.232 348.254 208.189 348.591 208.208 348.926C208.256 349.627 208.542 350.283 209.01 350.765C209.479 351.247 210.096 351.521 210.74 351.532Z" fill="#005642"/>
<path opacity="0.2" d="M225.177 360.182H287.36C287.669 360.184 287.975 360.117 288.259 359.986C288.543 359.854 288.8 359.66 289.012 359.416C289.225 359.171 289.389 358.882 289.495 358.566C289.601 358.249 289.647 357.913 289.629 357.576C289.579 356.875 289.29 356.219 288.819 355.737C288.349 355.255 287.731 354.982 287.086 354.971H224.902C224.593 354.967 224.286 355.032 224.001 355.163C223.716 355.294 223.459 355.488 223.246 355.733C223.033 355.978 222.869 356.268 222.764 356.585C222.658 356.902 222.614 357.24 222.634 357.576C222.687 358.277 222.976 358.931 223.446 359.413C223.916 359.894 224.533 360.168 225.177 360.182Z" fill="#005642"/>
<path opacity="0.2" d="M213.248 398.144H234.263C234.909 398.152 235.528 398.424 235.999 398.906C236.47 399.389 236.758 400.046 236.806 400.749C236.826 401.085 236.782 401.421 236.677 401.738C236.572 402.054 236.409 402.343 236.197 402.588C235.986 402.832 235.73 403.026 235.447 403.158C235.163 403.29 234.858 403.357 234.549 403.355H213.535C212.889 403.347 212.269 403.075 211.798 402.592C211.327 402.11 211.04 401.452 210.992 400.749C210.972 400.414 211.016 400.077 211.121 399.761C211.225 399.444 211.389 399.155 211.6 398.911C211.812 398.666 212.068 398.472 212.351 398.34C212.635 398.208 212.94 398.141 213.248 398.144Z" fill="#005642"/>
<path opacity="0.2" d="M246.548 398.144H289.401C290.047 398.152 290.666 398.424 291.137 398.906C291.608 399.389 291.896 400.046 291.944 400.749C291.965 401.085 291.923 401.423 291.819 401.74C291.715 402.057 291.551 402.347 291.339 402.592C291.127 402.837 290.871 403.031 290.587 403.162C290.302 403.294 289.996 403.359 289.687 403.355H246.823C246.177 403.344 245.559 403.071 245.089 402.589C244.618 402.107 244.33 401.451 244.279 400.749C244.26 400.412 244.304 400.075 244.409 399.758C244.515 399.441 244.679 399.15 244.892 398.906C245.105 398.661 245.362 398.467 245.647 398.336C245.932 398.205 246.239 398.139 246.548 398.144Z" fill="#005642"/>
<path opacity="0.2" d="M226.753 389.52H288.948C289.594 389.527 290.214 389.8 290.685 390.282C291.156 390.764 291.444 391.422 291.492 392.125C291.511 392.461 291.467 392.797 291.363 393.114C291.258 393.43 291.095 393.719 290.883 393.964C290.671 394.208 290.416 394.402 290.132 394.534C289.848 394.666 289.543 394.733 289.235 394.731H227.051C226.406 394.72 225.788 394.447 225.318 393.965C224.847 393.483 224.559 392.827 224.508 392.125C224.489 391.791 224.532 391.455 224.636 391.14C224.74 390.824 224.902 390.536 225.113 390.291C225.323 390.047 225.577 389.853 225.859 389.72C226.141 389.587 226.446 389.519 226.753 389.52Z" fill="#005642"/>
<path opacity="0.2" d="M215.578 441.343H291.731C292.376 441.356 292.993 441.63 293.462 442.112C293.932 442.593 294.222 443.247 294.275 443.948C294.294 444.285 294.25 444.622 294.145 444.94C294.039 445.257 293.875 445.547 293.662 445.791C293.449 446.036 293.192 446.23 292.907 446.361C292.622 446.492 292.315 446.558 292.006 446.554H215.853C215.209 446.542 214.592 446.269 214.124 445.787C213.655 445.305 213.369 444.649 213.322 443.948C213.302 443.612 213.346 443.276 213.45 442.96C213.555 442.643 213.718 442.354 213.93 442.109C214.142 441.865 214.397 441.671 214.681 441.539C214.965 441.407 215.27 441.34 215.578 441.343Z" fill="#005642"/>
<path opacity="0.2" d="M229.083 432.705H291.267C291.912 432.716 292.53 432.989 293 433.471C293.471 433.953 293.759 434.609 293.81 435.311C293.83 435.647 293.786 435.983 293.681 436.299C293.576 436.616 293.413 436.905 293.201 437.15C292.989 437.394 292.734 437.588 292.45 437.72C292.167 437.852 291.861 437.919 291.553 437.916H229.358C228.714 437.905 228.097 437.632 227.629 437.15C227.16 436.668 226.874 436.012 226.826 435.311C226.807 434.975 226.851 434.639 226.955 434.323C227.06 434.006 227.223 433.717 227.435 433.472C227.647 433.228 227.902 433.034 228.186 432.902C228.469 432.77 228.775 432.703 229.083 432.705Z" fill="#005642"/>
</svg>
